<svg xmlns="http://www.w3.org/2000/svg" xmlns:xlink="http://www.w3.org/1999/xlink" width="64" zoomAndPan="magnify" viewBox="0 0 48 48" height="64" preserveAspectRatio="xMidYMid meet" version="1.0"><defs><g/><clipPath id="5a82beeaa5"><path d="M 27 21 L 45.664062 21 L 45.664062 33 L 27 33 Z M 27 21 " clip-rule="nonzero"/></clipPath><clipPath id="5690c3cf9f"><path d="M 19.949219 7.054688 L 44 7.054688 L 44 33.503906 L 19.949219 33.503906 Z M 19.949219 7.054688 " clip-rule="nonzero"/></clipPath></defs><g clip-path="url(#5a82beeaa5)"><path fill="#003479" d="M 40.730469 28.054688 C 41.535156 26.652344 41.992188 25.027344 41.992188 23.292969 C 41.992188 22.722656 41.941406 22.160156 41.847656 21.617188 C 41.457031 23.777344 40.308594 25.675781 38.6875 27.019531 C 37.746094 27.796875 36.347656 27.640625 35.613281 26.667969 L 34.242188 24.847656 C 34.015625 24.546875 33.65625 24.371094 33.277344 24.371094 L 28.054688 24.371094 C 28.050781 24.371094 28.050781 24.371094 28.050781 24.371094 C 27.691406 24.371094 27.460938 24.746094 27.621094 25.066406 L 27.828125 25.480469 C 28.214844 26.25 28.976562 26.765625 29.835938 26.832031 L 30.148438 26.855469 L 31.5 26.960938 C 31.886719 26.992188 32.230469 27.207031 32.433594 27.535156 L 33.046875 28.539062 L 33.390625 29.101562 L 35.320312 32.253906 C 35.351562 32.3125 35.394531 32.359375 35.445312 32.402344 C 35.585938 32.519531 35.777344 32.570312 35.964844 32.523438 C 35.964844 32.523438 35.964844 32.523438 35.96875 32.523438 C 40.96875 31.289062 44.820312 27.140625 45.621094 21.980469 C 44.917969 24.628906 43.113281 26.824219 40.730469 28.054688 " fill-opacity="1" fill-rule="nonzero"/></g><g clip-path="url(#5690c3cf9f)"><path fill="#00c2cb" d="M 32.0625 27.757812 C 31.933594 27.550781 31.710938 27.414062 31.46875 27.394531 L 29.804688 27.261719 C 28.800781 27.183594 27.894531 26.574219 27.445312 25.675781 L 27.246094 25.285156 C 27.105469 25.003906 27.101562 24.671875 27.257812 24.398438 C 27.417969 24.121094 27.707031 23.949219 28.023438 23.9375 L 29.726562 23.9375 C 29.179688 23.074219 28.199219 22.589844 27.179688 22.6875 L 25.441406 22.847656 C 24.695312 22.917969 24.027344 22.40625 23.890625 21.671875 C 23.789062 21.125 23.734375 20.5625 23.734375 19.988281 C 23.734375 17.074219 25.101562 14.480469 27.222656 12.808594 C 25.121094 14.195312 23.480469 16.234375 22.597656 18.632812 C 23.394531 12.847656 28.355469 8.394531 34.359375 8.394531 C 38.078125 8.394531 41.394531 10.101562 43.570312 12.773438 C 41.257812 9.347656 37.34375 7.089844 32.898438 7.078125 C 25.785156 7.058594 19.964844 12.855469 19.953125 19.96875 C 19.949219 22.472656 20.660156 24.808594 21.890625 26.789062 C 21.917969 26.832031 21.941406 26.875 21.96875 26.917969 L 23.691406 26.625 C 24.460938 26.492188 25.09375 27.238281 24.832031 27.972656 C 24.828125 27.992188 24.820312 28.003906 24.820312 28.003906 C 25.929688 28.410156 25.746094 29.488281 25.746094 29.488281 C 26.722656 29.9375 26.320312 30.859375 26.320312 30.859375 C 26.667969 31 26.789062 31.28125 26.820312 31.371094 C 26.835938 31.417969 26.855469 31.464844 26.871094 31.511719 L 27.542969 33.230469 C 27.65625 33.527344 28.011719 33.769531 28.328125 33.769531 C 28.726562 33.769531 29.003906 33.367188 28.863281 32.992188 L 28.550781 32.160156 L 28.132812 31.046875 C 28.101562 30.96875 28.15625 30.882812 28.242188 30.875 C 28.296875 30.871094 28.347656 30.910156 28.367188 30.960938 L 28.917969 32.28125 L 29.324219 33.261719 C 29.464844 33.601562 29.835938 33.792969 30.183594 33.691406 C 30.605469 33.566406 30.816406 33.097656 30.625 32.703125 L 29.617188 30.625 C 29.574219 30.535156 29.632812 30.429688 29.730469 30.421875 C 29.789062 30.414062 29.84375 30.445312 29.871094 30.496094 L 31.097656 32.777344 L 31.246094 33.058594 C 31.398438 33.339844 31.726562 33.484375 32.027344 33.386719 C 32.261719 33.308594 32.414062 33.113281 32.457031 32.890625 C 32.480469 32.757812 32.464844 32.613281 32.394531 32.480469 L 31.4375 30.621094 C 31.394531 30.539062 31.425781 30.433594 31.511719 30.398438 C 31.585938 30.367188 31.671875 30.402344 31.707031 30.46875 L 32.792969 32.515625 C 32.878906 32.683594 33.007812 32.808594 33.160156 32.894531 C 33.414062 33.035156 33.730469 33.054688 34.011719 32.921875 C 34.066406 32.898438 34.117188 32.867188 34.160156 32.832031 C 34.546875 32.554688 34.667969 32.015625 34.410156 31.59375 L 32.0625 27.757812 " fill-opacity="1" fill-rule="nonzero"/></g><path fill="#003479" d="M 22.699219 28.535156 L 24.054688 28.308594 C 24.460938 28.242188 24.734375 27.859375 24.667969 27.453125 C 24.601562 27.042969 24.214844 26.769531 23.808594 26.835938 L 22.453125 27.0625 C 22.046875 27.128906 21.773438 27.515625 21.839844 27.921875 C 21.90625 28.328125 22.292969 28.601562 22.699219 28.535156 " fill-opacity="1" fill-rule="nonzero"/><path fill="#003479" d="M 25.359375 28.921875 C 25.292969 28.515625 24.90625 28.238281 24.5 28.304688 L 22.652344 28.660156 C 22.246094 28.726562 21.96875 29.113281 22.035156 29.519531 C 22.105469 29.925781 22.488281 30.199219 22.894531 30.132812 L 24.746094 29.78125 C 25.152344 29.710938 25.425781 29.328125 25.359375 28.921875 " fill-opacity="1" fill-rule="nonzero"/><path fill="#003479" d="M 25.984375 30.457031 C 25.917969 30.050781 25.53125 29.777344 25.125 29.84375 L 23.769531 30.066406 C 23.363281 30.136719 23.089844 30.519531 23.15625 30.925781 C 23.222656 31.332031 23.609375 31.609375 24.015625 31.542969 L 25.371094 31.316406 C 25.777344 31.25 26.050781 30.863281 25.984375 30.457031 " fill-opacity="1" fill-rule="nonzero"/><path fill="#003479" d="M 26.066406 31.285156 L 24.953125 31.460938 C 24.546875 31.527344 24.273438 31.914062 24.339844 32.320312 C 24.40625 32.726562 24.792969 33 25.199219 32.933594 L 26.3125 32.757812 C 26.71875 32.691406 26.992188 32.304688 26.925781 31.898438 C 26.859375 31.492188 26.472656 31.214844 26.066406 31.285156 " fill-opacity="1" fill-rule="nonzero"/><g fill="#003479" fill-opacity="1"><g transform="translate(1.05464, 31.872596)"><g><path d="M 2.839844 0 C 3.875 0 4.484375 -0.339844 4.851562 -0.855469 C 5.097656 -0.339844 5.640625 0 6.402344 0 C 6.539062 0 6.671875 -0.449219 6.671875 -1.003906 C 6.671875 -1.578125 6.539062 -2.011719 6.402344 -2.011719 C 5.695312 -2.011719 5.367188 -2.527344 5.261719 -3.929688 C 5.125 -5.625 4.445312 -6.824219 2.910156 -7.394531 L 1.507812 -5.3125 L 1.535156 -5.164062 C 1.984375 -5.015625 2.882812 -4.472656 3.464844 -3.886719 C 4.785156 -2.625 3.722656 -2.039062 2.597656 -2.039062 C 2.1875 -2.039062 1.46875 -1.972656 1.210938 -2.472656 L 0.542969 -1.496094 C 0.613281 -0.40625 1.425781 0 2.839844 0 Z M 2.839844 0 "/></g></g></g><g fill="#003479" fill-opacity="1"><g transform="translate(7.456106, 31.872596)"><g><path d="M 5.574219 -7.054688 C 6.101562 -7.054688 6.550781 -7.488281 6.550781 -8.019531 C 6.550781 -8.5625 6.101562 -8.996094 5.574219 -8.996094 C 5.042969 -8.996094 4.59375 -8.5625 4.59375 -8.019531 C 4.59375 -7.488281 5.042969 -7.054688 5.574219 -7.054688 Z M 0 0 C 1.15625 0 1.765625 -0.460938 2.242188 -1.371094 C 2.730469 -0.585938 3.957031 0 5.601562 0 C 7.378906 0 8.644531 -0.449219 9.390625 -1.238281 C 9.746094 -0.367188 10.492188 0 11.144531 0 C 11.28125 0 11.417969 -0.449219 11.417969 -1.003906 C 11.417969 -1.578125 11.28125 -2.011719 11.144531 -2.011719 C 10.667969 -2.011719 10.300781 -2.378906 10.113281 -3.289062 C 10.140625 -3.464844 10.152344 -3.65625 10.152344 -3.847656 C 10.152344 -5.574219 8.996094 -6.726562 7.339844 -6.671875 C 5.261719 -6.59375 4.105469 -4.253906 3.832031 -2.351562 C 3.382812 -2.609375 3.058594 -3.003906 3.058594 -3.792969 L 3.070312 -5.152344 L 0.71875 -5.367188 L 0.855469 -3.195312 C 0.910156 -2.285156 0.300781 -2.011719 0 -2.011719 C -0.136719 -2.011719 -0.273438 -1.578125 -0.273438 -1.003906 C -0.273438 -0.449219 -0.136719 0 0 0 Z M 5.109375 -2.039062 C 5.246094 -2.949219 5.734375 -3.996094 6.550781 -4.292969 C 7.109375 -4.5 7.734375 -4.171875 7.734375 -3.519531 C 7.734375 -2.625 6.878906 -2.039062 5.109375 -2.039062 Z M 5.109375 -2.039062 "/></g></g></g><g fill="#003479" fill-opacity="1"><g transform="translate(18.600909, 31.872596)"><g><path d="M 2.910156 0 C 3.042969 0 3.179688 -0.613281 3.179688 -1.003906 C 3.179688 -1.398438 3.042969 -2.011719 2.910156 -2.011719 L 0 -2.011719 C -0.136719 -2.011719 -0.273438 -1.398438 -0.273438 -1.003906 C -0.273438 -0.613281 -0.136719 0 0 0 Z M 2.910156 0 "/></g></g></g></svg>